<svg width="637" height="571" viewBox="0 0 637 571" fill="none" xmlns="http://www.w3.org/2000/svg">
<g filter="url(#filter0_d_45_222)">
<path d="M292.535 244.066L304.383 231.865L282.663 211.498L294.731 230.679L292.535 244.066Z" fill="#0F0F0F"/>
<path d="M328.253 299.137L333.31 265.391L326.594 258.675L328.253 299.137Z" fill="#0F0F0F"/>
<path d="M331.798 231.865L343.645 244.066L341.452 230.679L353.518 211.498L331.798 231.865Z" fill="#0F0F0F"/>
<path d="M307.927 299.137L309.588 258.675L302.872 265.391L307.927 299.137Z" fill="#0F0F0F"/>
<path d="M416.064 184.345C416.064 184.345 388.653 191.74 374.389 192.83C370.579 193.121 367.758 192.438 365.83 188.976C365.242 187.922 364.162 187.152 363.505 186.127C362.158 184.027 360.263 183.66 357.985 183.961C348.374 185.23 338.764 186.532 329.135 187.656C325.463 188.085 321.817 189.003 318.09 188.834C314.365 189.003 310.716 188.085 307.044 187.656C297.416 186.532 287.806 185.23 278.195 183.961C275.916 183.66 274.022 184.027 272.675 186.127C272.017 187.154 270.935 187.922 270.35 188.976C268.424 192.438 265.603 193.121 261.791 192.83C247.527 191.74 220.115 184.345 220.115 184.345L195.82 167.805L172.085 165.224L187.509 178.13L198.841 201.235C198.841 201.235 212.426 212.257 222.529 215.064C229.636 217.039 236.876 218.386 244.078 219.919C244.351 219.979 244.623 220.049 244.933 220.517C242.003 221.408 239.097 222.388 236.138 223.173C224.755 226.194 216.293 232.914 210.5 243.122C208.563 246.533 208.535 246.414 211.955 248.374C223.798 255.169 236.411 258.468 250.115 256.981C250.263 256.964 250.422 257.059 250.838 257.174C248.999 261.715 247.179 266.229 245.342 270.735C238.543 287.413 231.761 304.097 224.895 320.745C224.239 322.336 224.39 323.405 225.465 324.718C230.873 331.324 236.835 337.372 243.844 343.188C240.925 342.98 238.526 343.033 236.182 343.513C229.118 344.962 224.144 350.545 223.384 357.889C222.901 362.562 223.471 367.074 226.038 371.13C226.638 372.078 226.547 372.901 226.371 373.896C225.088 381.121 225.909 387.931 230.482 393.97C236.08 401.365 247.179 405.107 255.808 401.899C259.116 400.671 262.117 400.75 265.356 401.246C274.211 402.599 281.83 399.144 285.672 392.074C289.913 384.267 288.947 375.12 283.209 368.463C282.745 367.925 281.712 367.572 282.448 366.469C283.173 365.383 283.907 366.143 284.58 366.38C287.433 367.388 290.012 368.716 292.331 370.846C296.62 374.783 302.029 377.116 307.135 380.466V376.314C309.742 377.4 312.174 378.306 314.507 379.42C315.733 380.005 316.904 380.215 318.084 380.056C319.263 380.215 320.434 380.005 321.66 379.42C323.991 378.306 326.424 377.4 329.031 376.314V380.466C334.135 377.116 339.547 374.783 343.836 370.846C346.157 368.716 348.736 367.388 351.587 366.38C352.26 366.143 352.996 365.381 353.719 366.469C354.455 367.575 353.422 367.925 352.958 368.463C347.219 375.12 346.254 384.269 350.495 392.074C354.337 399.142 361.956 402.599 370.811 401.246C374.05 400.75 377.051 400.671 380.358 401.899C388.988 405.107 400.089 401.365 405.685 393.97C410.256 387.931 411.077 381.121 409.796 373.896C409.62 372.903 409.529 372.08 410.129 371.13C412.696 367.074 413.266 362.562 412.783 357.889C412.023 350.545 407.049 344.962 399.985 343.513C397.639 343.031 395.239 342.98 392.323 343.188C399.331 337.372 405.292 331.324 410.702 324.718C411.777 323.405 411.928 322.336 411.272 320.745C404.406 304.095 397.624 287.411 390.825 270.735C388.988 266.229 387.168 261.715 385.329 257.174C385.745 257.057 385.906 256.964 386.052 256.981C399.756 258.468 412.369 255.169 424.212 248.374C427.632 246.412 427.604 246.531 425.667 243.122C419.874 232.914 411.412 226.196 400.029 223.173C397.072 222.388 394.164 221.408 391.234 220.517C391.544 220.049 391.816 219.977 392.089 219.919C399.291 218.386 406.531 217.039 413.638 215.064C423.741 212.257 437.326 201.235 437.326 201.235L448.658 178.13L464.082 165.224L440.347 167.805L416.052 184.345H416.064ZM270.571 230.422C273.332 232.808 276.237 235.031 279.179 237.401C279.628 236.247 278.984 235.695 278.663 235.095C276.769 231.555 274.877 228.01 272.87 224.531C272.265 223.483 271.994 222.48 272.002 221.294C272.038 215.798 272.299 210.282 271.932 204.809C271.621 200.161 272.575 196.282 276.145 193.187C276.328 193.028 276.474 192.82 276.612 192.616C277.391 191.475 278.422 191.161 279.796 191.345C288.315 192.482 296.832 193.632 305.368 194.623C309.598 195.113 313.811 195.995 318.088 195.902C322.364 195.993 326.577 195.113 330.807 194.623C339.343 193.632 347.862 192.482 356.379 191.345C357.754 191.161 358.785 191.475 359.563 192.616C359.701 192.82 359.848 193.028 360.03 193.187C363.602 196.279 364.555 200.161 364.243 204.809C363.876 210.282 364.137 215.798 364.173 221.294C364.181 222.48 363.908 223.485 363.305 224.531C361.301 228.01 359.406 231.552 357.512 235.095C357.192 235.695 356.547 236.247 356.997 237.401C359.939 235.031 362.843 232.808 365.605 230.422C367.064 229.162 367.928 229.098 368.942 230.91C370.098 232.978 371.504 234.915 372.872 236.856C373.708 238.042 373.742 238.809 372.255 239.497C361.92 244.282 351.598 249.1 341.299 253.966C340.185 254.492 339.668 254.036 339.031 253.302C335.862 249.654 332.669 246.022 329.483 242.388C329.171 242.032 328.966 241.54 328.189 241.444C327.886 244.159 327.572 246.873 327.284 249.59C327.188 250.5 327.863 251.096 328.31 251.758C330.837 255.493 333.368 259.225 335.945 262.927C336.588 263.847 336.876 264.696 336.709 265.877C334.95 278.272 333.225 290.673 331.613 303.089C331.416 304.61 330.862 305.283 329.464 305.503C328.902 305.592 328.327 305.717 327.805 305.936C324.539 307.298 321.303 307.72 318.081 307.55C314.859 307.72 311.624 307.298 308.357 305.936C307.833 305.717 307.261 305.592 306.699 305.503C305.301 305.285 304.747 304.612 304.55 303.089C302.937 290.673 301.211 278.272 299.454 265.877C299.287 264.696 299.577 263.847 300.218 262.927C302.795 259.227 305.326 255.493 307.852 251.758C308.3 251.096 308.977 250.5 308.879 249.59C308.591 246.875 308.277 244.161 307.973 241.444C307.197 241.54 306.991 242.032 306.679 242.388C303.493 246.022 300.301 249.654 297.131 253.302C296.495 254.034 295.977 254.492 294.864 253.966C284.565 249.1 274.245 244.285 263.907 239.497C262.423 238.809 262.455 238.039 263.29 236.856C264.661 234.915 266.065 232.978 267.221 230.91C268.235 229.098 269.098 229.162 270.558 230.422H270.571ZM354.171 312.26C355.219 313.723 355.972 315.424 357.16 316.75C358.787 318.564 358.516 320.354 357.841 322.382C356.458 326.538 355.183 330.73 353.679 335.49C352.232 331.767 352.847 328.381 352.253 325.172C351.897 323.254 351.859 321.277 351.732 319.321C351.674 318.445 351.112 318.085 350.461 317.677C346.159 314.99 341.931 312.179 337.563 309.608C335.695 308.507 335.27 307.245 335.618 305.198C336.653 299.086 337.585 292.956 338.397 286.81C338.739 284.227 339.831 281.961 340.826 279.647C342.379 276.038 344.108 272.504 345.646 268.887C346.256 267.451 347.109 266.879 348.391 267.786C352.417 270.635 355.603 269.681 358.989 266.357C362.118 263.283 365.87 260.846 369.345 258.126C369.788 257.778 370.202 257.195 370.815 257.415C371.615 257.706 371.322 258.518 371.39 259.136C372.024 264.812 372.637 270.491 373.292 276.166C373.602 278.849 373.305 281.257 371.629 283.594C368.978 287.294 366.644 291.223 363.853 295.561C362.393 290.747 360.775 286.749 358.745 282.315C357.65 287.64 356.647 292.468 355.671 297.298C354.926 300.978 354.303 304.686 353.452 308.344C353.102 309.845 353.293 311.031 354.169 312.255L354.171 312.26ZM346.43 257.046C346.43 257.046 359.744 250.487 363.617 248.4C364.905 247.706 365.757 251.612 365.757 251.612V255.201L359.209 259.482H353.227L346.428 257.046H346.43ZM282.728 308.348C281.877 304.693 281.254 300.985 280.509 297.302C279.533 292.47 278.528 287.644 277.435 282.319C275.405 286.751 273.786 290.752 272.327 295.565C269.533 291.229 267.202 287.3 264.55 283.599C262.877 281.261 262.578 278.853 262.887 276.17C263.545 270.495 264.156 264.817 264.79 259.14C264.86 258.523 264.565 257.708 265.365 257.42C265.978 257.197 266.392 257.782 266.835 258.13C270.312 260.85 274.064 263.287 277.191 266.361C280.575 269.685 283.763 270.64 287.789 267.791C289.072 266.883 289.923 267.456 290.534 268.892C292.072 272.506 293.801 276.04 295.354 279.651C296.349 281.965 297.441 284.231 297.783 286.815C298.595 292.96 299.526 299.09 300.561 305.202C300.909 307.249 300.485 308.511 298.616 309.612C294.248 312.185 290.021 314.994 285.719 317.682C285.068 318.089 284.505 318.449 284.448 319.326C284.321 321.279 284.283 323.259 283.926 325.176C283.33 328.386 283.947 331.773 282.501 335.494C280.997 330.732 279.72 326.542 278.339 322.387C277.664 320.359 277.393 318.57 279.02 316.755C280.208 315.431 280.963 313.727 282.009 312.264C282.885 311.04 283.076 309.854 282.726 308.352L282.728 308.348ZM270.422 255.199V251.609C270.422 251.609 271.275 247.704 272.563 248.398C276.436 250.485 289.749 257.044 289.749 257.044L282.951 259.479H276.97L270.422 255.199ZM225.525 208.526C218.23 206.305 211.325 203.507 206.683 196.929C205.801 195.677 199.978 183.796 199.978 183.796L189.212 173.282L201.314 179.301C201.314 179.301 209.935 187.241 212.12 188.35C222.124 193.426 232.657 196.604 243.866 198.047C247.977 198.575 256.235 199.107 256.235 199.107L263.846 199.629C263.846 199.629 264.75 199.712 264.752 200.214C264.758 201.926 264.981 203.727 264.495 205.301C264.33 205.838 262.31 206.04 261.15 205.999C250.751 205.63 240.414 204.735 230.279 202.168C225.644 200.995 212.048 193.585 207.39 190.259C208.904 192.151 215.476 200.009 219.939 202.054C224.403 204.096 246.057 212.577 246.057 212.577C246.057 212.577 249.126 213.269 250.931 213.827C250.098 213.939 246.033 213.394 246.033 213.394C246.033 213.394 232.262 210.575 225.529 208.526H225.525ZM249.336 249.942C247.294 249.878 245.246 249.925 243.84 249.925C235.001 250.385 227.356 248.309 220.016 244.821C218.493 244.096 218.143 243.408 219.314 241.881C224.207 235.502 230.841 231.924 238.342 229.643C238.936 229.463 239.375 229.314 239.788 229.987C242.733 234.775 247.376 236.13 252.597 236.143C253.988 236.147 254.239 236.574 253.948 237.829C253.159 241.238 252.419 244.66 251.727 248.09C251.449 249.467 250.709 249.987 249.338 249.942H249.336ZM247.699 291.144C248.887 283.312 250.015 275.474 251.165 267.636C251.299 267.608 251.432 267.583 251.566 267.555C251.676 267.918 251.844 268.274 251.884 268.643C252.588 275.065 253.286 281.486 253.963 287.911C254.077 289.004 254.487 289.933 255.077 290.856C260.456 299.271 265.787 307.718 271.175 316.129C271.822 317.139 272.272 318.112 272.108 319.33C271.869 321.112 271.752 322.915 271.438 324.684C270.594 329.438 270.093 334.079 273.975 337.949C274.433 338.405 275.288 339.334 274.12 339.985C273.263 340.464 272.34 341.587 271.266 340.689C269.198 338.958 267.261 337.07 265.274 335.244C264.705 334.722 264.832 334.073 264.932 333.411C265.583 329.043 266.128 324.659 266.922 320.318C267.166 318.99 266.771 318.184 266.05 317.23C260.231 309.517 254.457 301.77 248.645 294.052C247.979 293.168 247.521 292.338 247.701 291.146L247.699 291.144ZM242.845 328.473C242.684 329.162 242.508 330.134 242.024 330.397C241.252 330.817 240.868 329.756 240.331 329.319C238.174 327.56 236.513 325.333 234.704 323.246C233.925 322.346 233.424 321.479 233.968 320.168C236.997 312.856 239.95 305.512 242.938 298.185C242.987 298.064 243.176 297.998 243.445 297.799C244.981 299.767 261.687 317.839 262.745 320.038C263.613 321.846 247.546 307.709 247.139 309.661C245.823 315.955 244.313 322.211 242.847 328.473H242.845ZM277.675 354.359C280.649 352.624 283.623 350.888 286.597 349.153C284.276 353.525 281.572 357.411 279.111 361.446C278.163 362.999 277.246 363.258 275.56 362.893C269.487 361.58 264.188 364.195 261.701 369.745C269.255 366.637 275.848 367.301 280.543 374.446C283.814 379.424 283.281 386.183 279.609 391.036C276.644 394.956 271.039 396.855 266.078 395.516C269.27 393.429 271.803 390.964 272.257 386.798C265.732 390.727 257.556 390.137 251.589 385.413C248.961 383.334 246.997 380.748 246.131 377.454C245.272 374.185 245.325 370.918 246.386 367.662C243.639 368.277 241.006 371.406 240.698 375.163C239.829 385.822 245.028 392.617 255.227 396.369C248.299 398.463 242.432 397.264 237.379 392.911C231.276 387.655 230.353 380.852 232.292 373.417C232.714 371.796 232.86 370.557 231.549 369.026C228.024 364.908 227.922 357.479 230.974 353.135C233.929 348.926 238.904 347.499 244.612 349.319C242.777 351.37 240.499 353.141 240.497 356.525C245.641 352.815 250.868 352.851 256.199 355.322C257.338 355.85 258.04 355.231 258.848 354.739C267.639 349.382 276.423 344.013 285.227 338.678C286.132 338.131 286.968 337.159 288.347 337.747C284.382 342.605 280.458 347.414 276.531 352.223C275.097 353.591 273.886 355.129 272.934 356.913C274.758 356.421 276.292 355.528 277.675 354.359ZM344.854 354.327C344.466 359.59 342.05 363.631 337.731 366.601C336.38 367.53 335.998 366.934 336 365.598C336 364.081 336 362.564 336 360.398C333.34 363.12 331.488 365.71 328.898 367.577C326.286 369.458 323.497 370.973 320.572 372.256C319.742 372.619 318.917 372.642 318.088 372.466C317.258 372.64 316.433 372.619 315.604 372.256C312.68 370.973 309.889 369.458 307.278 367.577C304.687 365.71 302.836 363.12 300.176 360.398C300.176 362.564 300.176 364.081 300.176 365.598C300.176 366.932 299.796 367.528 298.444 366.601C294.126 363.631 291.709 359.59 291.321 354.327C291.215 352.885 291.739 352.072 293.046 351.474C301.353 347.673 309.696 345.693 318.086 345.802C326.475 345.693 334.818 347.675 343.125 351.474C344.432 352.072 344.956 352.885 344.85 354.327H344.854ZM344.893 330.823C341.728 329.122 338.575 327.395 335.347 325.639C335.582 325.28 335.659 325.004 335.83 324.922C338.206 323.753 338.318 322.435 336.165 320.965C334.606 319.905 332.99 318.925 331.458 317.828C330.398 317.069 329.748 317.187 329.197 318.405C327.544 322.051 325.839 325.673 324.023 329.586C326.509 329.238 328.329 327.93 330.364 327.24C331.057 327.005 331.662 326.527 332.205 327.531C335.404 333.436 338.639 339.323 341.851 345.222C341.912 345.335 341.829 345.528 341.787 345.937C338.571 344.972 335.417 343.965 332.226 343.086C328.041 341.932 323.775 340.859 319.473 340.66C319.01 340.638 318.548 340.638 318.086 340.651C317.623 340.638 317.163 340.638 316.698 340.66C312.396 340.861 308.128 341.932 303.945 343.086C300.755 343.967 297.6 344.974 294.384 345.937C294.342 345.528 294.259 345.335 294.321 345.222C297.532 339.323 300.767 333.436 303.966 327.531C304.509 326.53 305.114 327.005 305.808 327.24C307.842 327.93 309.664 329.238 312.148 329.586C310.332 325.673 308.627 322.051 306.974 318.405C306.423 317.189 305.774 317.069 304.713 317.828C303.181 318.925 301.565 319.905 300.006 320.965C297.849 322.432 297.961 323.751 300.341 324.922C300.513 325.006 300.591 325.28 300.825 325.639C297.596 327.395 294.444 329.122 291.279 330.823C290.795 331.084 289.953 331.442 289.985 330.532C290.095 327.35 290.362 324.171 290.666 321.001C290.7 320.654 291.338 320.325 291.741 320.057C295.564 317.52 299.405 315.011 303.219 312.461C304.369 311.693 305.506 311.534 306.917 311.685C310.635 312.081 314.333 312.586 318.079 312.588C321.825 312.588 325.523 312.083 329.241 311.685C330.652 311.534 331.789 311.691 332.939 312.461C336.753 315.011 340.595 317.52 344.417 320.057C344.82 320.325 345.459 320.654 345.493 321.001C345.798 324.173 346.063 327.35 346.174 330.532C346.206 331.442 345.363 331.084 344.88 330.823H344.893ZM405.205 353.133C408.258 357.479 408.154 364.906 404.63 369.023C403.319 370.555 403.466 371.796 403.888 373.415C405.827 380.85 404.904 387.653 398.801 392.909C393.746 397.262 387.881 398.461 380.953 396.367C391.154 392.614 396.351 385.82 395.481 375.16C395.176 371.404 392.541 368.275 389.794 367.659C390.855 370.916 390.908 374.182 390.049 377.451C389.183 380.744 387.219 383.33 384.59 385.411C378.623 390.133 370.448 390.724 363.923 386.796C364.377 390.962 366.909 393.427 370.102 395.514C365.138 396.853 359.534 394.954 356.57 391.034C352.898 386.178 352.368 379.422 355.637 374.443C360.329 367.299 366.924 366.635 374.478 369.743C371.992 364.193 366.693 361.578 360.62 362.891C358.935 363.256 358.017 362.997 357.069 361.444C354.608 357.409 351.903 353.523 349.583 349.151C352.557 350.886 355.531 352.622 358.505 354.357C359.888 355.523 361.422 356.419 363.246 356.911C362.293 355.127 361.084 353.589 359.648 352.221C355.724 347.412 351.797 342.603 347.832 337.745C349.211 337.157 350.047 338.129 350.953 338.676C359.757 344.011 368.541 349.382 377.331 354.736C378.14 355.229 378.842 355.848 379.981 355.32C385.312 352.849 390.539 352.815 395.683 356.523C395.683 353.137 393.405 351.368 391.568 349.317C397.274 347.496 402.25 348.926 405.205 353.133ZM392.736 297.799C393.006 297.998 393.192 298.064 393.243 298.185C396.232 305.514 399.185 312.856 402.214 320.168C402.757 321.479 402.257 322.346 401.478 323.246C399.671 325.333 398.01 327.558 395.85 329.319C395.314 329.756 394.93 330.819 394.158 330.397C393.674 330.134 393.498 329.162 393.337 328.473C391.871 322.211 390.36 315.957 389.045 309.661C388.638 307.709 372.571 321.846 373.439 320.038C374.495 317.839 391.203 299.767 392.738 297.799H392.736ZM388.481 291.144C388.661 292.336 388.203 293.164 387.537 294.05C381.725 301.768 375.952 309.515 370.132 317.228C369.41 318.182 369.016 318.988 369.26 320.316C370.053 324.656 370.596 329.043 371.25 333.409C371.347 334.069 371.477 334.72 370.908 335.242C368.92 337.068 366.984 338.956 364.915 340.687C363.842 341.587 362.919 340.462 362.062 339.983C360.893 339.329 361.748 338.4 362.207 337.946C366.089 334.077 365.588 329.436 364.744 324.682C364.43 322.913 364.313 321.112 364.073 319.328C363.91 318.11 364.36 317.136 365.007 316.127C370.393 307.716 375.726 299.271 381.105 290.853C381.695 289.931 382.104 289.002 382.219 287.909C382.896 281.484 383.593 275.063 384.298 268.641C384.338 268.272 384.508 267.916 384.616 267.553C384.75 267.581 384.883 267.606 385.017 267.634C386.164 275.47 387.295 283.31 388.483 291.142L388.481 291.144ZM396.391 229.987C396.805 229.314 397.244 229.463 397.838 229.643C405.339 231.924 411.972 235.502 416.866 241.881C418.037 243.406 417.689 244.096 416.164 244.821C408.826 248.311 401.179 250.385 392.34 249.925C390.933 249.925 388.886 249.876 386.843 249.942C385.473 249.984 384.733 249.467 384.455 248.09C383.761 244.66 383.023 241.238 382.234 237.829C381.943 236.574 382.191 236.147 383.585 236.143C388.805 236.128 393.451 234.775 396.394 229.987H396.391ZM436.204 183.798C436.204 183.798 430.381 195.679 429.498 196.931C424.857 203.509 417.95 206.307 410.657 208.528C403.922 210.577 390.152 213.396 390.152 213.396C390.152 213.396 386.09 213.941 385.254 213.829C387.06 213.271 390.129 212.58 390.129 212.58C390.129 212.58 411.784 204.101 416.247 202.056C420.71 200.013 427.282 192.154 428.796 190.261C424.138 193.588 410.543 200.997 405.907 202.17C395.772 204.737 385.435 205.632 375.036 206.001C373.878 206.042 371.856 205.842 371.691 205.303C371.205 203.729 371.428 201.929 371.434 200.217C371.434 199.714 372.34 199.631 372.34 199.631L379.951 199.109C379.951 199.109 388.209 198.577 392.321 198.049C403.53 196.606 414.062 193.428 424.066 188.352C426.251 187.243 434.872 179.303 434.872 179.303L446.974 173.285L436.208 183.798H436.204Z" fill="#0F0F0F"/>
<path d="M395.682 356.522C390.538 352.812 385.311 352.848 379.981 355.319C378.841 355.847 378.139 355.228 377.331 354.736C368.54 349.379 359.756 344.01 350.953 338.675C350.047 338.128 349.211 337.156 347.832 337.744C351.797 342.602 355.721 347.411 359.648 352.22C361.082 353.588 362.293 355.126 363.245 356.91C361.421 356.418 359.888 355.525 358.504 354.356C355.53 352.621 352.556 350.885 349.582 349.15C351.903 353.522 354.607 357.409 357.068 361.443C358.016 362.996 358.933 363.255 360.619 362.89C366.693 361.577 371.992 364.192 374.478 369.742C366.924 366.634 360.331 367.298 355.636 374.443C352.365 379.421 352.898 386.18 356.57 391.033C359.535 394.953 365.14 396.852 370.102 395.513C366.909 393.426 364.376 390.961 363.922 386.795C370.447 390.724 378.623 390.134 384.59 385.41C387.218 383.331 389.183 380.745 390.048 377.451C390.907 374.182 390.854 370.915 389.794 367.659C392.541 368.274 395.173 371.403 395.481 375.16C396.35 385.819 391.151 392.614 380.952 396.366C387.88 398.46 393.748 397.261 398.801 392.908C404.904 387.652 405.826 380.849 403.887 373.414C403.465 371.793 403.319 370.554 404.63 369.023C408.155 364.905 408.258 357.476 405.205 353.132C402.25 348.923 397.276 347.496 391.567 349.316C393.402 351.367 395.68 353.138 395.682 356.522Z" fill="#F9F9F9"/>
<path d="M355.672 297.301C356.647 292.469 357.653 287.643 358.745 282.318C360.776 286.75 362.394 290.75 363.854 295.564C366.647 291.228 368.979 287.299 371.63 283.597C373.304 281.26 373.603 278.852 373.293 276.169C372.636 270.494 372.025 264.815 371.391 259.139C371.321 258.521 371.615 257.707 370.816 257.418C370.203 257.196 369.789 257.781 369.346 258.129C365.869 260.849 362.116 263.286 358.989 266.36C355.606 269.684 352.418 270.638 348.391 267.789C347.108 266.882 346.257 267.454 345.646 268.89C344.108 272.505 342.38 276.039 340.827 279.65C339.832 281.964 338.739 284.23 338.398 286.813C337.585 292.959 336.654 299.089 335.619 305.201C335.271 307.248 335.695 308.51 337.564 309.611C341.932 312.184 346.16 314.993 350.462 317.68C351.113 318.088 351.675 318.448 351.733 319.324C351.86 321.278 351.898 323.257 352.254 325.175C352.85 328.384 352.233 331.772 353.68 335.493C355.184 330.731 356.461 326.541 357.842 322.385C358.516 320.357 358.788 318.569 357.161 316.753C355.973 315.43 355.218 313.726 354.172 312.263C353.296 311.039 353.105 309.853 353.455 308.351C354.305 304.696 354.929 300.988 355.674 297.305L355.672 297.301Z" fill="#5A0D82"/>
<path d="M382.231 237.829C383.02 241.238 383.761 244.659 384.452 248.089C384.73 249.466 385.47 249.986 386.841 249.941C388.884 249.878 390.931 249.924 392.337 249.924C401.177 250.385 408.822 248.308 416.161 244.82C417.684 244.095 418.035 243.408 416.864 241.88C411.97 235.502 405.336 231.923 397.836 229.643C397.242 229.462 396.802 229.314 396.389 229.986C393.444 234.774 388.801 236.129 383.58 236.142C382.189 236.146 381.938 236.573 382.229 237.829H382.231Z" fill="#A500EA"/>
<path d="M384.614 267.553C384.504 267.916 384.336 268.272 384.296 268.641C383.592 275.063 382.894 281.484 382.217 287.909C382.103 289.002 381.693 289.931 381.104 290.854C375.724 299.269 370.393 307.716 365.005 316.127C364.358 317.137 363.908 318.11 364.072 319.328C364.311 321.11 364.428 322.913 364.742 324.682C365.586 329.436 366.087 334.077 362.205 337.947C361.747 338.403 360.892 339.332 362.061 339.983C362.918 340.462 363.84 341.585 364.914 340.687C366.982 338.956 368.919 337.068 370.906 335.242C371.475 334.72 371.348 334.071 371.248 333.409C370.597 329.041 370.051 324.657 369.258 320.316C369.014 318.988 369.409 318.182 370.13 317.228C375.949 309.515 381.723 301.768 387.535 294.05C388.201 293.166 388.66 292.336 388.479 291.144C387.291 283.312 386.163 275.474 385.013 267.636C384.879 267.608 384.746 267.583 384.612 267.555L384.614 267.553Z" fill="#A500EA"/>
<path d="M389.043 309.66C390.358 315.954 391.868 322.209 393.334 328.471C393.495 329.161 393.671 330.132 394.155 330.395C394.927 330.815 395.311 329.755 395.848 329.318C398.005 327.559 399.666 325.332 401.476 323.244C402.254 322.345 402.755 321.477 402.212 320.166C399.183 312.854 396.23 305.51 393.241 298.183C393.192 298.063 393.003 297.997 392.734 297.797C391.198 299.766 374.493 317.837 373.434 320.037C372.567 321.844 388.633 307.708 389.041 309.66H389.043Z" fill="#5A0D82"/>
<path d="M424.063 188.35C414.059 193.426 403.526 196.604 392.317 198.046C388.206 198.575 379.948 199.107 379.948 199.107L372.337 199.629C372.337 199.629 371.433 199.712 371.431 200.214C371.425 201.926 371.202 203.727 371.688 205.301C371.853 205.838 373.873 206.039 375.033 205.999C385.432 205.63 395.769 204.735 405.904 202.168C410.539 200.995 424.135 193.585 428.793 190.259C427.278 192.151 420.707 200.008 416.243 202.053C411.78 204.096 390.126 212.577 390.126 212.577C390.126 212.577 387.057 213.269 385.251 213.827C386.085 213.939 390.149 213.394 390.149 213.394C390.149 213.394 403.921 210.575 410.654 208.526C417.949 206.305 424.854 203.507 429.495 196.928C430.378 195.677 436.201 183.795 436.201 183.795L446.966 173.282L434.864 179.3C434.864 179.3 426.243 187.24 424.058 188.35H424.063Z" fill="white"/>
<path d="M439.936 162.096L419.709 174.542L406.744 180.074C406.744 180.074 385.961 184.437 375.361 185.428C373.11 185.638 371.651 184.866 370.37 183.15C369.048 181.379 367.459 179.805 366.186 178.004C364.996 176.319 363.581 175.842 361.583 176.109C350.718 177.564 339.848 178.99 328.966 180.301C325.347 180.736 321.739 181.811 318.092 181.457C314.446 181.811 310.837 180.736 307.218 180.301C296.336 178.992 285.467 177.566 274.601 176.109C272.603 175.842 271.188 176.319 269.998 178.004C268.725 179.805 267.134 181.379 265.815 183.15C264.536 184.866 263.074 185.638 260.823 185.428C250.223 184.437 229.441 180.074 229.441 180.074L216.476 174.542L196.249 162.096L171.648 160L160 160.755L178.258 178.508C178.258 178.508 182.866 182.774 189.429 196.179C195.453 208.48 204.55 217.245 217.865 221.255C218.412 221.42 218.945 221.637 219.473 221.859C219.594 221.91 219.666 222.076 219.918 222.377C216.654 224.594 213.709 227.163 211.02 230.022C205.907 235.457 202.755 242.203 198.712 248.352C198.19 249.148 198.606 249.532 199.259 249.884C211.359 256.441 223.268 263.52 237.546 264.251C239.557 264.355 239.799 265.123 239.076 266.867C234.193 278.678 229.375 290.515 224.539 302.348C221.904 308.794 219.324 315.264 216.611 321.677C215.875 323.419 216.134 324.702 217.288 326.14C220.37 329.976 223.472 333.788 226.889 337.332C227.659 338.132 228.213 338.724 226.827 339.568C215.85 346.259 213.423 361.068 218.321 372.361C218.728 373.303 218.936 374.107 218.775 375.155C216.176 391.848 227.489 407.189 244.328 409.942C249.116 410.725 253.855 410.617 258.35 408.797C260.603 407.885 262.699 408.277 264.829 408.583C279.321 410.659 291.625 402.293 294.926 388.029C295.019 387.631 295.157 387.24 295.22 386.837C295.973 382.049 295.982 382.026 300.322 384.328C305.318 386.977 310.33 389.608 315.254 392.387C316.287 392.97 317.176 393.12 318.09 392.923C319.004 393.12 319.893 392.97 320.926 392.387C325.85 389.605 330.86 386.977 335.858 384.328C340.196 382.026 340.207 382.049 340.96 386.837C341.024 387.24 341.163 387.631 341.255 388.029C344.555 402.291 356.859 410.659 371.352 408.583C373.484 408.277 375.577 407.885 377.83 408.797C382.325 410.617 387.064 410.725 391.852 409.942C408.689 407.189 420.004 391.848 417.405 375.155C417.242 374.107 417.45 373.303 417.859 372.361C422.757 361.068 420.328 346.259 409.353 339.568C407.968 338.724 408.521 338.132 409.291 337.332C412.709 333.788 415.81 329.976 418.892 326.14C420.046 324.704 420.305 323.421 419.569 321.677C416.858 315.262 414.278 308.794 411.642 302.348C406.805 290.517 401.988 278.678 397.104 266.867C396.383 265.121 396.625 264.353 398.634 264.251C412.912 263.52 424.821 256.441 436.921 249.884C437.575 249.53 437.99 249.146 437.469 248.352C433.425 242.203 430.273 235.457 425.161 230.022C422.471 227.163 419.526 224.594 416.262 222.377C416.514 222.076 416.586 221.91 416.707 221.859C417.236 221.639 417.768 221.42 418.315 221.255C431.631 217.245 440.729 208.48 446.751 196.179C453.317 182.774 457.922 178.508 457.922 178.508L476.18 160.755L464.532 160L439.931 162.096H439.936ZM448.669 178.131L437.337 201.236C437.337 201.236 423.752 212.258 413.648 215.065C406.542 217.04 399.302 218.387 392.1 219.92C391.827 219.98 391.555 220.05 391.245 220.519C394.175 221.41 397.081 222.39 400.04 223.175C411.423 226.195 419.885 232.916 425.678 243.123C427.615 246.534 427.643 246.416 424.223 248.376C412.38 255.17 399.767 258.469 386.063 256.982C385.915 256.965 385.755 257.06 385.34 257.175C387.179 261.716 388.999 266.231 390.836 270.736C397.635 287.414 404.416 304.098 411.283 320.746C411.939 322.337 411.788 323.406 410.713 324.719C405.305 331.325 399.342 337.373 392.333 343.189C395.252 342.981 397.652 343.034 399.996 343.514C407.06 344.963 412.034 350.546 412.793 357.89C413.277 362.563 412.707 367.075 410.14 371.131C409.539 372.079 409.631 372.902 409.807 373.897C411.09 381.122 410.269 387.932 405.696 393.971C400.098 401.366 388.999 405.108 380.369 401.901C377.062 400.672 374.061 400.751 370.821 401.247C361.967 402.601 354.347 399.145 350.506 392.075C346.265 384.268 347.231 375.121 352.969 368.465C353.433 367.926 354.466 367.574 353.73 366.471C353.005 365.384 352.271 366.144 351.598 366.382C348.745 367.389 346.166 368.717 343.847 370.847C339.558 374.784 334.148 377.117 329.042 380.467V376.316C326.435 377.402 324.004 378.307 321.671 379.421C320.445 380.007 319.274 380.217 318.094 380.058C316.915 380.217 315.744 380.007 314.518 379.421C312.186 378.307 309.753 377.402 307.146 376.316V380.467C302.042 377.117 296.631 374.784 292.342 370.847C290.021 368.717 287.441 367.389 284.59 366.382C283.918 366.144 283.182 365.382 282.459 366.471C281.722 367.576 282.756 367.926 283.22 368.465C288.958 375.121 289.923 384.27 285.683 392.075C281.841 399.143 274.221 402.601 265.367 401.247C262.128 400.751 259.126 400.672 255.819 401.901C247.19 405.108 236.089 401.366 230.493 393.971C225.922 387.932 225.101 381.122 226.382 373.897C226.558 372.904 226.649 372.081 226.049 371.131C223.482 367.075 222.912 362.563 223.395 357.89C224.155 350.546 229.129 344.963 236.193 343.514C238.539 343.032 240.938 342.981 243.855 343.189C236.846 337.373 230.885 331.325 225.476 324.719C224.401 323.406 224.25 322.337 224.906 320.746C231.772 304.096 238.554 287.412 245.353 270.736C247.19 266.231 249.01 261.716 250.849 257.175C250.433 257.058 250.272 256.965 250.126 256.982C236.422 258.469 223.809 255.17 211.966 248.376C208.546 246.413 208.574 246.532 210.51 243.123C216.304 232.916 224.766 226.197 236.149 223.175C239.106 222.39 242.014 221.41 244.943 220.519C244.634 220.05 244.362 219.978 244.088 219.92C236.887 218.387 229.647 217.04 222.54 215.065C212.437 212.258 198.852 201.236 198.852 201.236L187.52 178.131L172.096 165.225L195.831 167.806L220.126 184.346C220.126 184.346 247.538 191.741 261.801 192.831C265.611 193.122 268.432 192.439 270.361 188.977C270.948 187.923 272.028 187.153 272.686 186.128C274.033 184.028 275.927 183.661 278.205 183.962C287.817 185.231 297.426 186.533 307.055 187.658C310.727 188.086 314.374 189.005 318.101 188.835C321.826 189.005 325.474 188.086 329.146 187.658C338.775 186.533 348.384 185.231 357.996 183.962C360.274 183.661 362.169 184.028 363.516 186.128C364.173 187.155 365.255 187.923 365.841 188.977C367.767 192.439 370.588 193.122 374.4 192.831C388.664 191.741 416.075 184.346 416.075 184.346L440.37 167.806L464.106 165.225L448.682 178.131H448.669Z" fill="#06F80A"/>
<path d="M288.346 337.744C286.968 337.156 286.132 338.128 285.226 338.675C276.423 344.01 267.638 349.382 258.848 354.736C258.039 355.228 257.337 355.847 256.198 355.319C250.867 352.848 245.641 352.814 240.496 356.522C240.496 353.136 242.775 351.367 244.612 349.316C238.905 347.496 233.929 348.925 230.974 353.132C227.921 357.479 228.025 364.905 231.549 369.023C232.86 370.554 232.713 371.795 232.291 373.414C230.352 380.849 231.275 387.652 237.378 392.908C242.433 397.261 248.298 398.46 255.227 396.366C245.025 392.614 239.828 385.819 240.698 375.16C241.003 371.403 243.638 368.274 246.385 367.659C245.324 370.915 245.271 374.182 246.13 377.451C246.996 380.743 248.96 383.329 251.589 385.41C257.556 390.132 265.731 390.724 272.256 386.795C271.802 390.961 269.27 393.426 266.077 395.513C271.041 396.852 276.645 394.953 279.609 391.033C283.281 386.178 283.811 379.421 280.542 374.443C275.85 367.298 269.255 366.634 261.701 369.742C264.187 364.192 269.486 361.577 275.559 362.89C277.244 363.255 278.162 362.996 279.11 361.443C281.571 357.409 284.276 353.522 286.596 349.15C283.622 350.885 280.648 352.621 277.674 354.356C276.291 355.523 274.758 356.418 272.933 356.91C273.886 355.126 275.095 353.588 276.531 352.22C280.455 347.411 284.382 342.602 288.346 337.744Z" fill="#F9F9F9"/>
<path d="M279.02 316.746C277.393 318.56 277.665 320.35 278.339 322.378C279.723 326.534 280.997 330.726 282.501 335.486C283.948 331.763 283.333 328.377 283.927 325.168C284.283 323.25 284.321 321.273 284.449 319.317C284.506 318.441 285.068 318.081 285.719 317.673C290.021 314.986 294.249 312.175 298.617 309.604C300.486 308.503 300.91 307.241 300.562 305.194C299.527 299.082 298.596 292.952 297.783 286.806C297.442 284.222 296.349 281.957 295.354 279.643C293.802 276.034 292.073 272.5 290.535 268.883C289.924 267.447 289.071 266.874 287.79 267.782C283.764 270.631 280.577 269.677 277.192 266.353C274.063 263.279 270.31 260.841 266.836 258.122C266.392 257.774 265.979 257.191 265.366 257.411C264.566 257.702 264.859 258.514 264.791 259.132C264.156 264.808 263.543 270.487 262.888 276.162C262.578 278.845 262.875 281.253 264.551 283.59C267.203 287.29 269.536 291.219 272.328 295.557C273.787 290.743 275.406 286.745 277.436 282.311C278.53 287.636 279.534 292.464 280.51 297.294C281.254 300.974 281.878 304.682 282.729 308.34C283.079 309.841 282.888 311.027 282.012 312.251C280.964 313.715 280.21 315.416 279.022 316.742L279.02 316.746Z" fill="#5A0D82"/>
<path d="M344.429 320.056C340.606 317.519 336.764 315.01 332.95 312.46C331.801 311.692 330.663 311.533 329.253 311.683C325.534 312.08 321.837 312.585 318.09 312.587C314.344 312.587 310.647 312.082 306.928 311.683C305.518 311.533 304.38 311.69 303.231 312.46C299.417 315.01 295.575 317.519 291.752 320.056C291.349 320.323 290.711 320.652 290.677 321C290.371 324.171 290.106 327.349 289.996 330.531C289.964 331.441 290.806 331.083 291.29 330.822C294.455 329.12 297.607 327.394 300.836 325.637C300.6 325.279 300.524 325.003 300.352 324.92C297.976 323.752 297.865 322.433 300.017 320.964C301.576 319.903 303.193 318.923 304.724 317.827C305.785 317.067 306.434 317.186 306.985 318.404C308.638 322.05 310.343 325.671 312.159 329.585C309.673 329.237 307.853 327.928 305.819 327.239C305.125 327.003 304.521 326.526 303.978 327.529C300.779 333.435 297.543 339.322 294.332 345.221C294.27 345.334 294.353 345.527 294.396 345.936C297.612 344.971 300.766 343.963 303.956 343.085C308.142 341.931 312.407 340.858 316.709 340.658C317.172 340.637 317.634 340.637 318.097 340.65C318.559 340.637 319.02 340.637 319.484 340.658C323.786 340.86 328.054 341.931 332.237 343.085C335.428 343.965 338.582 344.973 341.798 345.936C341.841 345.527 341.923 345.334 341.862 345.221C338.65 339.322 335.415 333.435 332.216 327.529C331.673 326.528 331.069 327.003 330.375 327.239C328.341 327.928 326.518 329.237 324.034 329.585C325.85 325.671 327.556 322.05 329.208 318.404C329.76 317.188 330.409 317.067 331.47 317.827C333.001 318.923 334.618 319.903 336.177 320.964C338.333 322.431 338.222 323.749 335.842 324.92C335.67 325.005 335.591 325.279 335.358 325.637C338.586 327.394 341.739 329.12 344.904 330.822C345.387 331.083 346.229 331.441 346.198 330.531C346.087 327.349 345.82 324.169 345.517 321C345.483 320.652 344.844 320.323 344.441 320.056H344.429Z" fill="#A500EA"/>
<path d="M343.129 351.472C334.822 347.671 326.479 345.691 318.089 345.8C309.7 345.691 301.356 347.673 293.049 351.472C291.743 352.07 291.219 352.883 291.325 354.325C291.713 359.588 294.129 363.629 298.448 366.599C299.799 367.528 300.181 366.932 300.179 365.596C300.179 364.079 300.179 362.562 300.179 360.396C302.839 363.118 304.691 365.708 307.281 367.575C309.893 369.456 312.682 370.971 315.608 372.254C316.437 372.617 317.262 372.64 318.092 372.464C318.921 372.638 319.746 372.617 320.576 372.254C323.499 370.971 326.29 369.456 328.902 367.575C331.492 365.708 333.344 363.118 336.004 360.396C336.004 362.562 336.004 364.079 336.004 365.596C336.004 366.93 336.383 367.526 337.735 366.599C342.054 363.629 344.47 359.588 344.858 354.325C344.964 352.883 344.44 352.07 343.133 351.472H343.129Z" fill="#5A0D82"/>
<path d="M251.724 248.089C252.417 244.659 253.156 241.238 253.945 237.829C254.235 236.573 253.987 236.146 252.593 236.142C247.373 236.127 242.727 234.774 239.785 229.986C239.371 229.314 238.932 229.462 238.338 229.643C230.838 231.923 224.204 235.502 219.31 241.88C218.139 243.406 218.487 244.095 220.012 244.82C227.35 248.31 234.997 250.385 243.837 249.924C245.243 249.924 247.29 249.876 249.333 249.941C250.704 249.984 251.444 249.466 251.722 248.089H251.724Z" fill="#A500EA"/>
<path d="M266.048 317.225C266.769 318.18 267.164 318.986 266.92 320.314C266.127 324.654 265.584 329.041 264.93 333.407C264.833 334.066 264.703 334.718 265.272 335.239C267.259 337.066 269.196 338.954 271.265 340.685C272.338 341.584 273.26 340.46 274.117 339.98C275.286 339.327 274.432 338.398 273.973 337.944C270.091 334.075 270.592 329.433 271.436 324.68C271.75 322.91 271.867 321.109 272.107 319.325C272.27 318.108 271.82 317.134 271.173 316.124C265.787 307.713 260.454 299.269 255.075 290.851C254.485 289.928 254.076 288.999 253.961 287.907C253.284 281.481 252.586 275.06 251.882 268.639C251.842 268.27 251.672 267.914 251.564 267.551C251.43 267.578 251.297 267.604 251.163 267.631C250.015 275.468 248.885 283.308 247.697 291.14C247.516 292.332 247.975 293.159 248.641 294.046C254.453 301.763 260.225 309.51 266.046 317.223L266.048 317.225Z" fill="#A500EA"/>
<path d="M262.744 320.037C261.687 317.837 244.98 299.766 243.444 297.797C243.175 297.997 242.988 298.063 242.937 298.183C239.948 305.513 236.995 312.854 233.966 320.166C233.423 321.477 233.924 322.345 234.702 323.244C236.509 325.332 238.171 327.557 240.33 329.318C240.867 329.755 241.251 330.818 242.023 330.395C242.506 330.132 242.682 329.161 242.844 328.471C244.309 322.209 245.82 315.956 247.135 309.66C247.542 307.708 263.609 321.844 262.741 320.037H262.744Z" fill="#5A0D82"/>
<path d="M289.751 257.045C289.751 257.045 276.437 250.486 272.564 248.398C271.276 247.705 270.423 251.61 270.423 251.61V255.199L276.972 259.48H282.952L289.751 257.045Z" fill="#06F80A"/>
<path d="M359.211 259.479L365.759 255.198V251.609C365.759 251.609 364.907 247.703 363.619 248.397C359.746 250.484 346.432 257.043 346.432 257.043L353.231 259.479H359.213H359.211Z" fill="#06F80A"/>
<path d="M250.928 213.827C249.123 213.269 246.053 212.577 246.053 212.577C246.053 212.577 224.399 204.098 219.935 202.053C215.472 200.011 208.901 192.151 207.386 190.259C212.044 193.585 225.64 200.995 230.275 202.168C240.41 204.735 250.747 205.63 261.146 205.999C262.304 206.039 264.326 205.84 264.491 205.301C264.977 203.727 264.754 201.926 264.748 200.214C264.748 199.712 263.842 199.629 263.842 199.629L256.231 199.107C256.231 199.107 247.973 198.575 243.862 198.046C232.653 196.604 222.121 193.426 212.116 188.35C209.932 187.24 201.31 179.3 201.31 179.3L189.208 173.282L199.974 183.795C199.974 183.795 205.797 195.677 206.68 196.928C211.321 203.507 218.228 206.305 225.521 208.526C232.256 210.575 246.025 213.394 246.025 213.394C246.025 213.394 250.088 213.939 250.923 213.827H250.928Z" fill="white"/>
<path d="M372.88 236.854C373.713 238.042 373.747 238.812 372.262 239.497C361.925 244.281 351.603 249.098 341.306 253.967C340.192 254.489 339.673 254.037 339.038 253.301C335.867 249.652 332.677 246.023 329.49 242.387C329.181 242.032 328.973 241.538 328.199 241.445C327.893 244.162 327.581 246.875 327.291 249.593C327.197 250.501 327.872 251.097 328.322 251.758C330.846 255.496 333.377 259.225 335.956 262.929C336.597 263.846 336.887 264.694 336.72 265.878C334.959 278.271 333.232 290.674 331.62 303.088C331.423 304.611 330.872 305.283 329.476 305.504C328.909 305.593 328.337 305.716 327.815 305.932C324.55 307.294 321.315 307.718 318.088 307.551C314.868 307.718 311.633 307.294 308.369 305.932C307.847 305.716 307.27 305.593 306.708 305.504C305.312 305.281 304.76 304.611 304.563 303.088C302.945 290.674 301.224 278.271 299.463 265.878C299.296 264.694 299.586 263.846 300.227 262.929C302.807 259.225 305.337 255.496 307.862 251.758C308.311 251.097 308.986 250.501 308.893 249.593C308.602 246.875 308.29 244.162 307.985 241.445C307.21 241.538 307.003 242.032 306.693 242.387C303.507 246.02 300.312 249.652 297.145 253.301C296.509 254.035 295.991 254.489 294.877 253.967C284.58 249.098 274.258 244.281 263.921 239.497C262.436 238.812 262.47 238.042 263.304 236.854C264.674 234.915 266.081 232.979 267.235 230.912C268.251 229.097 269.114 229.162 270.573 230.425C273.335 232.811 276.239 235.03 279.18 237.404C279.634 236.25 278.987 235.698 278.666 235.096C276.772 231.555 274.88 228.015 272.871 224.532C272.268 223.486 271.999 222.48 272.003 221.297C272.043 215.798 272.298 210.285 271.933 204.81C271.623 200.164 272.574 196.282 276.144 193.191C276.331 193.034 276.475 192.822 276.613 192.619C277.391 191.48 278.422 191.164 279.799 191.352C288.316 192.487 296.837 193.635 305.369 194.628C309.601 195.12 313.812 195.998 318.088 195.909C322.365 195.998 326.58 195.12 330.808 194.628C339.344 193.637 347.867 192.487 356.384 191.352C357.761 191.166 358.792 191.48 359.57 192.619C359.708 192.82 359.853 193.032 360.035 193.191C363.612 196.284 364.562 200.164 364.252 204.81C363.883 210.285 364.144 215.798 364.182 221.297C364.186 222.48 363.915 223.486 363.315 224.532C361.308 228.013 359.414 231.555 357.519 235.096C357.199 235.698 356.552 236.25 357.002 237.404C359.946 235.032 362.85 232.813 365.612 230.425C367.071 229.162 367.935 229.099 368.951 230.912C370.105 232.979 371.511 234.917 372.882 236.854H372.88ZM341.45 230.679L353.519 211.5L331.798 231.863L343.644 244.069L341.448 230.679H341.45ZM356.526 200.501C354.091 201.015 336.972 206.414 334.66 206.912C333.209 207.222 331.775 207.553 330.324 207.735L321.758 217.756L325.526 203.834C325.481 203.823 320.534 203 318.088 203.056C315.647 203 310.696 203.826 310.655 203.834L314.423 217.756L305.857 207.735C304.406 207.553 302.968 207.222 301.521 206.912C299.209 206.414 282.09 201.013 279.655 200.501C282.748 203.711 300.422 211.766 303.445 214.735C307.677 218.893 312.026 222.932 316.317 227.035C316.884 227.578 317.951 228.865 317.951 228.865C317.951 228.865 319.298 227.578 319.864 227.035C324.155 222.932 328.5 218.893 332.736 214.735C335.759 211.766 353.434 203.713 356.526 200.501ZM333.309 265.388L326.597 258.672L328.254 299.136L333.309 265.388ZM307.93 299.136L309.586 258.672L302.875 265.388L307.93 299.136ZM292.537 244.069L304.383 231.863L282.663 211.5L294.731 230.679L292.535 244.069H292.537Z" fill="#A500EA"/>
<path d="M334.661 206.913C336.973 206.414 354.092 201.013 356.527 200.502C353.434 203.711 335.759 211.766 332.736 214.736C328.5 218.894 324.156 222.933 319.864 227.035C319.298 227.578 317.951 228.866 317.951 228.866C317.951 228.866 316.886 227.578 316.318 227.035C312.026 222.933 307.678 218.894 303.446 214.736C300.423 211.766 282.748 203.714 279.655 200.502C282.091 201.015 299.209 206.414 301.522 206.913C302.966 207.222 304.407 207.553 305.857 207.736L314.423 217.757L310.656 203.835C310.696 203.824 315.647 203.001 318.089 203.056C320.535 203.001 325.482 203.826 325.526 203.835L321.759 217.757L330.325 207.736C331.776 207.553 333.21 207.222 334.661 206.913Z" fill="#030304"/>
</g>
<path d="M44.0028 567.312L62.9122 472.765H104.321C116.65 472.765 126.541 475.664 133.715 481.386C141.375 487.496 145.422 496.364 145.422 507.037C145.422 515.183 143.336 522.524 139.223 528.859C135.139 535.149 129.358 540.066 122.042 543.471C115.073 546.714 106.884 548.36 97.7069 548.36H91.5505L87.759 567.315H44L44.0028 567.312ZM99.0285 510.897C100.643 510.897 101.382 510.59 101.541 510.467C101.552 510.433 101.575 510.368 101.598 510.263C101.339 510.243 101.035 510.229 100.683 510.229H99.1194L98.9859 510.897H99.0285Z" fill="#1E1E1E"/>
<path d="M128.289 488.19C122.67 483.711 114.677 481.468 104.32 481.468H70.0458L54.6182 558.612H80.6275L84.419 539.657H97.7093C105.645 539.657 112.532 538.299 118.372 535.579C124.213 532.862 128.732 529.042 131.927 524.119C135.122 519.196 136.722 513.503 136.722 507.037C136.722 498.957 133.911 492.675 128.292 488.193L128.289 488.19ZM107.404 516.897C105.42 518.699 102.626 519.597 99.0281 519.597H88.3754L91.9793 501.523H100.679C103.692 501.523 106.06 502.128 107.788 503.342C109.513 504.556 110.377 506.557 110.377 509.348C110.377 512.582 109.385 515.098 107.401 516.897H107.404Z" fill="#A100FF"/>
<path d="M179.919 569.077C170.579 569.077 162.274 567.281 155.234 563.739C147.961 560.081 142.225 554.906 138.184 548.357C134.142 541.809 132.093 534.245 132.093 525.881C132.093 517.516 133.531 510.473 136.368 503.797C139.21 497.103 143.283 491.208 148.47 486.286C153.628 481.388 159.802 477.566 166.822 474.919C173.734 472.319 181.329 471 189.398 471C198.735 471 207.04 472.796 214.083 476.335C221.359 479.996 227.094 485.171 231.133 491.717C235.175 498.266 237.224 505.829 237.224 514.196C237.224 522.564 235.786 529.598 232.95 536.278C230.102 542.98 226.029 548.872 220.847 553.791C215.686 558.691 209.51 562.514 202.495 565.158C195.585 567.758 187.991 569.077 179.922 569.077H179.919ZM187.192 509.455C185.385 509.455 183.884 509.768 182.599 510.41C181.229 511.095 180.087 512.025 179.112 513.244C178.023 514.606 177.219 516.146 176.656 517.948C176.039 519.923 175.727 522.075 175.727 524.34C175.727 525.847 175.988 527.066 176.523 528.075C176.949 528.874 177.48 529.422 178.256 529.851C179.18 530.366 180.479 530.624 182.122 530.624C183.958 530.624 185.507 530.312 186.723 529.692C188.076 529.004 189.216 528.072 190.202 526.836C191.294 525.471 192.095 523.934 192.658 522.135C193.275 520.159 193.587 518.008 193.587 515.742C193.587 514.208 193.329 512.949 192.817 512.002C192.394 511.22 191.848 510.672 191.052 510.229C190.137 509.72 188.835 509.458 187.192 509.458V509.455Z" fill="#1E1E1E"/>
<path d="M210.171 484.112C204.33 481.176 197.403 479.704 189.397 479.704C182.345 479.704 175.842 480.826 169.89 483.066C163.939 485.309 158.797 488.486 154.463 492.599C150.126 496.714 146.766 501.58 144.379 507.199C141.991 512.818 140.797 519.046 140.797 525.879C140.797 532.711 142.395 538.606 145.592 543.787C148.787 548.969 153.306 553.028 159.147 555.964C164.988 558.903 171.911 560.372 179.921 560.372C186.975 560.372 193.475 559.249 199.427 557.01C205.379 554.77 210.52 551.592 214.855 547.477C219.189 543.364 222.551 538.495 224.939 532.873C227.326 527.254 228.52 521.027 228.52 514.194C228.52 507.361 226.923 501.464 223.725 496.285C220.531 491.107 216.011 487.048 210.171 484.109V484.112ZM200.968 524.725C200.086 527.553 198.765 530.068 197 532.274C195.238 534.479 193.123 536.204 190.664 537.455C188.203 538.706 185.355 539.328 182.123 539.328C178.892 539.328 176.263 538.706 174.023 537.455C171.781 536.207 170.055 534.442 168.845 532.166C167.631 529.889 167.026 527.28 167.026 524.341C167.026 521.183 167.466 518.187 168.347 515.359C169.228 512.531 170.55 510.013 172.315 507.81C174.077 505.605 176.209 503.88 178.707 502.629C181.205 501.381 184.034 500.756 187.194 500.756C190.355 500.756 193.052 501.381 195.294 502.629C197.534 503.88 199.262 505.625 200.473 507.865C201.687 510.107 202.292 512.733 202.292 515.743C202.292 518.904 201.851 521.897 200.97 524.725H200.968Z" fill="#A100FF"/>
<path d="M219.334 567.312L238.244 472.765H280.204C289.558 472.765 297.843 474.357 304.823 477.497C312.227 480.829 318.045 485.712 322.115 492.004C326.186 498.303 328.249 505.769 328.249 514.196C328.249 522.624 326.797 529.576 323.934 536.099C321.061 542.641 316.971 548.343 311.781 553.047C306.639 557.708 300.503 561.306 293.548 563.739C286.772 566.11 279.28 567.312 271.279 567.312H219.337H219.334ZM272.16 529.63C275.062 529.63 277.384 529.081 279.058 527.995C280.812 526.861 282.111 525.366 283.029 523.422C284.098 521.163 284.618 518.647 284.618 515.737C284.618 514.333 284.405 513.233 284.004 512.551C283.802 512.207 283.441 511.752 282.455 511.297C281.614 510.911 280.025 510.445 277.231 510.445H274.454L270.64 529.627H272.16V529.63Z" fill="#1E1E1E"/>
<path d="M314.808 496.731C311.648 491.845 307.132 488.079 301.254 485.436C295.376 482.79 288.361 481.468 280.204 481.468H245.378L229.951 558.612H271.277C278.328 558.612 284.794 557.583 290.672 555.526C296.55 553.471 301.638 550.495 305.935 546.598C310.233 542.704 313.575 538.04 315.962 532.603C318.35 527.166 319.544 521.032 319.544 514.199C319.544 507.367 317.963 501.62 314.806 496.731H314.808ZM290.894 527.149C289.277 530.565 286.906 533.285 283.786 535.303C280.662 537.324 276.788 538.333 272.158 538.333H260.036L267.309 501.745H277.229C280.756 501.745 283.712 502.296 286.099 503.399C288.487 504.502 290.286 506.082 291.499 508.137C292.713 510.195 293.318 512.73 293.318 515.74C293.318 519.927 292.508 523.729 290.894 527.146V527.149Z" fill="#A100FF"/>
<path d="M370.027 564.934L375.558 537.285H369.456L363.925 564.934H321.374L339.763 472.991H382.314L376.999 499.568H383.102L388.417 472.991H430.968L412.579 564.934H370.027Z" fill="#1E1E1E"/>
<path d="M390.039 508.028H366.676L371.991 481.453H346.701L331.697 556.468H356.987L362.518 528.819H385.881L380.35 556.468H405.643L420.645 481.453H395.354L390.039 508.028Z" fill="#06F80A"/>
<path d="M455.687 566.648C446.452 566.648 438.483 564.781 432 561.094C425.122 557.186 420.162 551.607 417.257 544.513C414.443 537.643 413.909 529.744 415.668 521.036L425.278 472.991H467.823L457.668 523.895C457.224 526.249 457.202 527.704 457.264 528.511C457.284 528.778 457.313 528.98 457.344 529.128C457.637 529.19 458.103 529.253 458.793 529.253C459.709 529.253 460.422 529.119 460.863 528.869C460.883 528.858 461.323 528.596 461.934 527.408C462.486 526.337 463.29 524.304 463.986 520.683L473.499 472.991H515.627L505.136 525.444C502.555 538.504 497.033 548.736 488.722 555.833C480.321 563.01 469.207 566.648 455.684 566.648H455.687Z" fill="#1E1E1E"/>
<path d="M480.443 481.453L472.3 522.285C471.583 526 470.64 529.001 469.46 531.286C468.281 533.574 466.817 535.217 465.066 536.215C463.315 537.215 461.226 537.715 458.796 537.715C456.795 537.715 455.081 537.411 453.652 536.806C452.222 536.2 451.097 535.251 450.275 533.966C449.454 532.682 448.971 531.073 448.829 529.143C448.684 527.213 448.863 524.928 449.366 522.285L457.509 481.453H432.218L423.968 522.714C422.538 529.785 422.913 535.984 425.093 541.308C427.273 546.631 430.968 550.775 436.186 553.74C441.402 556.704 447.902 558.188 455.69 558.188C467.192 558.188 476.373 555.26 483.231 549.4C490.089 543.542 494.625 535.004 496.842 523.788L505.309 481.456H480.446L480.443 481.453Z" fill="#06F80A"/>
<path d="M491.553 564.934L509.942 472.994H556.64C567.429 472.994 575.592 475.009 581.595 479.156C588.402 483.857 592 490.84 592 499.355C592 506.012 589.988 511.802 586.02 516.562C585.474 517.216 584.9 517.847 584.298 518.455C587.183 522.409 588.678 527.184 588.678 532.578C588.678 540.204 586.344 546.67 581.74 551.792C577.55 556.45 572.022 559.892 565.306 562.024C559.215 563.957 552.442 564.94 545.171 564.94H491.553V564.934Z" fill="#1E1E1E"/>
<path d="M573.623 519.764C572.56 519.03 571.4 518.385 570.147 517.828C574.04 516.191 577.164 513.96 579.517 511.137C582.198 507.923 583.536 503.995 583.536 499.348C583.536 493.632 581.285 489.221 576.786 486.112C572.284 483.005 565.568 481.45 556.64 481.45H516.88L501.876 556.468H545.172C551.601 556.468 557.459 555.63 562.748 553.95C568.035 552.273 572.267 549.664 575.447 546.125C578.625 542.59 580.217 538.07 580.217 532.568C580.217 527.065 578.019 522.799 573.625 519.761L573.623 519.764ZM550.529 499.135C552.601 499.135 554.227 499.51 555.407 500.26C556.586 501.011 557.175 502.173 557.175 503.742C557.175 505.1 556.887 506.26 556.316 507.224C555.742 508.187 554.832 508.937 553.582 509.475C552.331 510.012 550.743 510.279 548.813 510.279H535.974L538.203 499.135H550.527H550.529ZM552.726 537.073C551.118 538.215 549.066 538.787 546.564 538.787H530.276L532.635 526.997H548.924C550.566 526.997 552.013 527.409 553.264 528.231C554.511 529.052 555.14 530.286 555.14 531.928C555.14 534.216 554.335 535.93 552.729 537.073H552.726Z" fill="#06F80A"/>
<defs>
<filter id="filter0_d_45_222" x="0" y="0" width="636.18" height="570.404" filterUnits="userSpaceOnUse" color-interpolation-filters="sRGB">
<feFlood flood-opacity="0" result="BackgroundImageFix"/>
<feColorMatrix in="SourceAlpha" type="matrix" values="0 0 0 0 0 0 0 0 0 0 0 0 0 0 0 0 0 0 127 0" result="hardAlpha"/>
<feOffset/>
<feGaussianBlur stdDeviation="80"/>
<feColorMatrix type="matrix" values="0 0 0 0 0 0 0 0 0 1 0 0 0 0 0.211765 0 0 0 0.8 0"/>
<feBlend mode="normal" in2="BackgroundImageFix" result="effect1_dropShadow_45_222"/>
<feBlend mode="normal" in="SourceGraphic" in2="effect1_dropShadow_45_222" result="shape"/>
</filter>
</defs>
</svg>
